<svg id="visual" viewBox="0 0 900 600" width="900" height="600" xmlns="http://www.w3.org/2000/svg" xmlns:xlink="http://www.w3.org/1999/xlink" version="1.1"><rect x="0" y="0" width="900" height="600" fill="#ff5a1e"></rect><g transform="translate(467.1183500626722 318.97473510905354)"><path d="M213.3 -367.9C305.2 -316.3 428.4 -317.4 479.8 -264.9C531.1 -212.3 510.6 -106.2 474.6 -20.8C438.7 64.7 387.3 129.3 359.4 222.4C331.5 315.5 327 437.1 271 471.1C215 505.1 107.5 451.5 15.4 424.8C-76.7 398.1 -153.3 398.2 -250.8 388.2C-348.2 378.1 -466.4 357.8 -515.9 291.4C-565.4 225 -546.2 112.5 -497.8 27.9C-449.5 -56.7 -372 -113.3 -312.3 -162C-252.6 -210.8 -210.7 -251.5 -161.6 -327.9C-112.5 -404.2 -56.3 -516.1 2.2 -519.9C60.7 -523.7 121.3 -419.5 213.3 -367.9" fill="#6200be"></path></g></svg>