<svg id="visual" viewBox="0 0 540 960" width="540" height="960" xmlns="http://www.w3.org/2000/svg" xmlns:xlink="http://www.w3.org/1999/xlink" version="1.1"><rect x="0" y="0" width="540" height="960" fill="#ff5a1e"></rect><g transform="translate(224.06860640728215 523.8011733026306)"><path d="M262.3 -481.2C322 -419.7 340.3 -313.4 389.5 -225.7C438.7 -138 518.8 -69 509.5 -5.4C500.1 58.2 401.2 116.3 327.2 161.2C253.3 206.1 204.4 237.7 154 291C103.7 344.2 51.8 419.1 -14.6 444.4C-81 469.6 -162 445.3 -236.2 405.8C-310.4 366.3 -377.8 311.6 -387.9 241.5C-398 171.3 -350.9 85.7 -360.1 -5.3C-369.4 -96.3 -435 -192.7 -414.4 -244.8C-393.9 -296.9 -287.2 -304.8 -203.8 -352.6C-120.3 -400.4 -60.2 -488.2 20.5 -523.8C101.2 -559.4 202.5 -542.7 262.3 -481.2" fill="#6200be"></path></g></svg>